<svg width="50" height="50" viewBox="0 0 50 50" fill="none" xmlns="http://www.w3.org/2000/svg">
<path d="M44.9883 13.9844C44.7266 13.9922 44.4766 14.1016 44.293 14.293L25 33.5859L5.70703 14.293C5.51953 14.0977 5.26172 13.9922 4.99219 13.9883C4.58203 13.9922 4.21875 14.2383 4.0625 14.6133C3.91016 14.9922 4 15.4219 4.29297 15.707L24.293 35.707C24.6836 36.0977 25.3164 36.0977 25.707 35.707L45.707 15.707C46.0039 15.4219 46.0938 14.9805 45.9375 14.6016C45.7773 14.2227 45.4023 13.9766 44.9883 13.9844Z" fill="#222222"/>
<path d="M34.9883 13.9844C34.7266 13.9922 34.4766 14.1016 34.293 14.293L25 23.5859L15.707 14.293C15.5195 14.0977 15.2617 13.9922 14.9922 13.9883C14.582 13.9922 14.2188 14.2383 14.0625 14.6133C13.9102 14.9922 14 15.4219 14.293 15.707L24.293 25.707C24.6836 26.0977 25.3164 26.0977 25.707 25.707L35.707 15.707C36.0039 15.4219 36.0938 14.9805 35.9375 14.6016C35.7773 14.2227 35.4023 13.9766 34.9883 13.9844Z" fill="#222222"/>
</svg>
