<svg width="20" height="20" viewBox="0 0 20 20" fill="none" xmlns="http://www.w3.org/2000/svg">
<g opacity="0.6">
<path d="M16.1193 6.99105C15.9542 6.99495 15.7974 7.06399 15.6831 7.18311L10 12.8662L4.3169 7.18311C4.25864 7.12311 4.18893 7.07542 4.11191 7.04285C4.03489 7.01028 3.95212 6.99349 3.86849 6.99349C3.74411 6.99352 3.62256 7.03066 3.5194 7.10016C3.41624 7.16966 3.33617 7.26835 3.28941 7.38361C3.24266 7.49888 3.23136 7.62547 3.25696 7.74719C3.28256 7.86891 3.34389 7.98023 3.43311 8.0669L9.55811 14.1919C9.67532 14.3091 9.83427 14.3749 10 14.3749C10.1657 14.3749 10.3247 14.3091 10.4419 14.1919L16.5669 8.0669C16.6578 7.97966 16.7202 7.867 16.7459 7.74369C16.7717 7.62037 16.7596 7.49215 16.7112 7.37584C16.6628 7.25953 16.5804 7.16055 16.4748 7.09189C16.3691 7.02322 16.2452 6.98807 16.1193 6.99105Z" fill="#222222"/>
</g>
</svg>
