<svg width="417" height="481" viewBox="0 0 417 481" fill="none" xmlns="http://www.w3.org/2000/svg">
<path opacity="0.08" d="M417 63.9143C417 101.061 398.989 135.204 362.968 166.342C329.347 196.387 295.487 211.41 261.387 211.41C226.326 211.41 208.796 196.114 208.796 165.523C208.796 143.671 213.118 132.746 221.763 132.746C225.125 132.746 226.806 135.204 226.806 140.12C226.806 141.759 226.566 144.218 226.086 147.495C225.605 150.773 225.365 153.231 225.365 154.87C225.365 176.175 237.613 186.828 262.107 186.828C287.562 186.828 316.38 172.898 348.559 145.037C380.738 117.177 396.828 89.5896 396.828 62.2758C396.828 35.5078 376.896 22.124 337.032 22.124C328.867 22.124 320.943 22.6703 313.258 23.7629C271.953 28.6795 224.885 48.4822 172.053 83.1709C119.222 117.86 75.2757 158.421 40.2148 204.855C1.31145 257.298 -18.14 307.556 -18.14 355.629C-18.14 385.674 -9.25481 408.618 8.51596 424.46C24.3654 438.663 45.9782 445.765 73.3546 445.765C160.767 445.765 245.537 406.979 327.666 329.407C329.588 327.768 331.509 326.949 333.43 326.949C339.193 326.949 342.075 330.5 342.075 337.601C342.075 340.333 341.115 342.791 339.193 344.976C304.132 381.577 262.588 412.715 214.559 438.39C161.727 466.797 113.939 481 71.1936 481C36.1326 481 7.79556 472.806 -13.8173 456.418C-39.2723 437.298 -52 408.891 -52 371.198C-52 326.403 -35.9103 277.511 -3.73118 224.521C34.2114 161.699 83.441 109.529 143.957 68.0119C208.796 22.6705 272.674 0 335.592 0C389.864 0 417 21.3048 417 63.9147L417 63.9143Z" fill="#373535"/>
</svg>
