<svg width="68" height="55" viewBox="0 0 68 55" fill="none" xmlns="http://www.w3.org/2000/svg">
<path d="M12.6351 29.0117C12.6351 30.8194 13.0246 32.3954 13.8791 33.529C14.8716 34.8562 16.7378 35.5285 19.0705 35.5285C25.2124 35.5285 34.6219 30.8194 39.9093 20.5717C39.9093 20.5717 40.1627 19.6297 40.7829 19.6297H40.8021C41.1132 19.6487 41.3455 19.9373 41.3455 20.3798C41.3455 20.8222 41.094 21.4167 40.4125 21.9938C39.0915 23.1084 37.9838 24.9317 37.9838 24.9317C37.9838 24.9317 30.8319 34.4518 21.3176 36.0677C20.4794 36.2151 19.6299 36.2897 18.7786 36.2906C13.3934 36.2906 9.73968 33.0417 9.73968 27.332C9.73968 24.6206 10.5557 21.3717 12.3834 17.6545C12.4795 17.4437 12.5966 17.2311 12.6944 17.0203C11.5677 16.7965 10.4583 16.4945 9.37449 16.1165C6.31838 15.0727 5.71555 14.8619 2.91631 12.4425C0.428099 10.3048 0 8.26735 0 6.6913C0 6.47873 0 6.26791 0.0192208 6.07609C0.0978511 4.40327 0.933081 2.11522 3.88783 0.769015C4.99734 0.263117 6.20445 0.000770457 7.4262 0C8.74719 0 9.66105 0.326616 9.66105 0.558184V0.596203C9.56585 0.779538 9.42487 0.935778 9.25148 1.0501C9.07809 1.16443 8.87803 1.23304 8.6703 1.24943C8.5165 1.25233 8.36601 1.20494 8.24221 1.11464C8.00981 0.941827 7.23224 0.634222 6.20131 0.634222C5.07428 0.634222 3.65544 1.00058 2.31348 2.30705C1.73068 2.8706 1.26589 3.54222 0.945677 4.28353C0.625469 5.02484 0.456124 5.82129 0.447319 6.62735C0.447319 9.30077 2.3694 12.5116 8.49557 15.1643C9.92806 15.7726 11.4192 16.2358 12.946 16.5468C19.1666 4.62273 27.2149 0.858878 32.7365 0.800121H32.85C36.4059 0.800121 37.8649 2.51097 37.8649 4.87676C37.8649 6.20224 37.3791 7.76101 36.5613 9.31804C35.9952 10.4776 34.6795 12.0157 32.8727 13.4966C31.066 14.9777 27.6429 16.5537 22.5878 17.3797C21.3171 17.5859 20.0315 17.6888 18.7437 17.6873C17.7888 17.6855 16.8345 17.6341 15.885 17.5336C13.9385 21.4184 12.6351 25.6281 12.6351 29.0117ZM36.8375 5.87563C36.8627 5.21826 36.6564 4.57263 36.2538 4.049C35.8659 3.56858 35.0307 3.33874 33.9212 3.33874C30.6361 3.33874 24.9014 5.49198 20.7217 10.1821C19.0897 12.0277 17.4961 14.4316 16.1787 16.9892C16.8199 17.0272 17.4612 17.0653 18.1007 17.0653C24.7301 17.0653 30.3094 14.6458 31.9432 13.4898C33.4419 12.3996 34.7319 11.0536 35.7523 9.51505C35.7523 9.51505 36.8375 7.65214 36.8375 5.87563Z" fill="#222222"/>
<path d="M22.3377 23.2802C22.5125 23.1749 22.661 22.8984 22.7955 22.7462C22.958 22.5614 23.124 22.3798 23.2917 22.1984C26.5628 18.7128 31.1286 16.8568 35.628 15.4588C37.2299 14.9411 38.88 14.5822 40.5537 14.3872C41.0824 14.3303 41.6138 14.3009 42.1456 14.2992C44.8086 14.2992 47.0382 15.1269 48.2298 17.2612C48.6387 18.0111 48.8327 18.972 48.8327 20.0677C48.8327 27.9686 39.6958 43.4458 39.6958 43.4458C39.6958 43.4458 54.0607 28.2762 59.135 23.1246C62.4794 19.741 64.5518 18.0872 66.0369 18.0872C66.7935 18.0872 67.3772 18.5296 67.9031 19.3747C67.9725 19.5259 68.0053 19.6909 67.9993 19.8569C67.9993 23.6051 57.9293 42.523 56.1802 46.5218C55.2471 48.6561 54.8977 49.978 54.8977 50.8663C54.8847 51.2001 54.9479 51.5324 55.0825 51.8387C55.2171 52.1451 55.4197 52.4176 55.6752 52.6359C55.7329 52.6943 55.778 52.7635 55.8081 52.8396C55.8381 52.9155 55.8523 52.9967 55.85 53.0783C55.85 53.7696 55.0147 54.7892 54.2773 54.7892C53.7724 54.7892 53.2849 54.3277 53.1294 53.0195C53.1133 52.8472 53.107 52.6741 53.1101 52.5011C53.1101 48.4244 57.6409 39.312 60.4001 33.2377C62.6366 28.335 64.7946 23.4703 64.7946 21.6834C64.7946 21.2013 64.6584 20.9524 64.328 20.9524C64.1058 20.9653 63.8901 21.0311 63.699 21.1443C60.919 22.5665 42.9756 40.8691 40.7792 43.4458C38.5827 46.0224 38.719 45.3882 36.8127 49.0984C35.0252 52.5547 34.1497 55 32.7501 55C32.6589 54.9953 32.5683 54.9826 32.4793 54.9619C31.623 54.7701 31.0814 54.2707 31.0814 53.5207C31.0814 52.9244 31.4309 52.1745 32.2469 51.3087C34.0938 49.3681 41.831 35.5637 45.1772 25.7583C45.7993 23.9317 46.1103 22.3557 46.1103 21.0095C46.1103 17.6448 44.2057 15.8251 40.4926 15.8251C39.1845 15.8462 37.8836 16.0202 36.617 16.3435C31.6336 17.5325 27.4959 20.04 23.2253 22.729L22.3377 23.2802Z" fill="#222222"/>
</svg>
