<svg width="728" height="253" viewBox="0 0 728 253" fill="none" xmlns="http://www.w3.org/2000/svg">
<g clip-path="url(#clip0_1363_1121)">
<path d="M235.661 162.25C263.185 147.976 267.294 143.655 277.383 134.003L279.615 134.717C279.631 134.953 242.815 174.49 224.29 175.741C224.259 175.743 224.224 175.746 224.192 175.748C223.241 175.812 222.286 175.653 221.408 175.285C220.516 174.532 219.967 173.447 219.889 172.281C219.88 172.151 219.877 172.018 219.88 171.888C219.218 162.097 220.51 158.047 231.713 138.975C231.48 138.25 231.204 137.526 230.898 136.828L225.909 141.316C215.625 150.981 199.095 165.455 194.356 166.64L193.141 166.722C188.559 167.032 181.813 164.419 181.209 155.489L181.18 155.059C180.519 145.268 189.4 121.239 204.105 115.859C206.104 115.148 208.201 114.716 210.32 114.573C210.337 114.572 210.354 114.571 210.371 114.569C210.441 114.566 210.516 114.559 210.586 114.554C213.344 114.368 216.108 114.938 218.568 116.199L218.798 116.4C224.031 119.332 228.003 126.283 230.359 132.045C234.505 128.479 238.416 124.93 241.925 121.84C244.113 118.407 245.474 116.132 245.474 116.132C247.613 112.27 250.115 110.567 252.523 110.404C256.44 110.139 259.558 114.08 259.912 119.328L260.014 120.835C260.001 120.955 240.076 147.238 235.661 162.251L235.661 162.25ZM221.087 127.596C217.362 127.984 213.986 129.973 211.837 133.042C205.782 140.67 202.424 149.199 202.659 152.684C202.719 153.565 202.963 153.982 203.409 154.168L203.623 154.153C205.581 154.02 217.584 143.59 229.135 133.17C228.016 130.694 226.008 128.722 223.511 127.649C222.8 127.511 222.072 127.465 221.348 127.514C221.247 127.521 221.145 127.53 221.045 127.54L221.087 127.596V127.596ZM235.206 132.76L231.912 135.835C232.171 136.466 232.216 137.132 232.461 137.549C233.449 135.99 234.372 134.353 235.187 132.7L235.206 132.76V132.76Z" fill="#222222"/>
<path d="M285.463 119.018C283.054 119.18 281.185 120.625 281.48 124.992L281.509 125.422C282.009 132.824 288.118 132.411 291.076 137.464L317.162 124.981L317.667 126.048L291.874 139.377C292.241 140.564 292.471 141.793 292.555 143.033C292.555 143.037 292.556 143.045 292.556 143.049L292.674 144.792C292.072 158.602 271.709 161.749 265.463 163.056L264.365 163.129C262.191 163.276 260.59 162.283 260.472 160.54C260.311 158.151 262.45 154.289 267.863 149.969C277.834 142.076 284.066 140.573 284.066 140.573C284.066 140.573 270.66 133.158 269.969 122.916C269.955 122.776 269.943 122.631 269.933 122.489C269.883 121.751 269.909 121.01 270.008 120.278C271.446 109.243 284.13 102.485 291.532 101.985L293.019 101.884C295.868 102.124 297.372 104.875 297.593 108.145C297.916 112.923 295.71 118.994 292.572 121.173C290.405 119.91 287.967 119.168 285.463 119.017V119.018Z" fill="#222222"/>
<path d="M317.725 147.27C317.843 149.013 318.969 149.369 320.06 149.512C323.33 149.291 370.652 120.934 370.652 120.934L373.506 120.958C373.506 120.958 326.747 151.244 318.053 155.333C316.824 155.851 315.514 156.168 314.182 156.261C314.008 156.284 313.832 156.303 313.657 156.315C309.245 156.613 305.425 153.277 305.127 148.866C305.116 148.69 305.11 148.513 305.11 148.338C304.756 143.109 307.281 135.05 315.254 123.791C325.444 109.529 335.794 104.03 343.196 103.53C349.521 103.103 353.888 106.309 354.167 110.44C354.183 111.261 354.092 112.083 353.898 112.879C350.887 123.351 330.249 125.63 330.249 125.63C320.293 138.991 317.548 144.645 317.725 147.27L317.725 147.27ZM347.727 111.801C347.727 111.76 347.726 111.72 347.723 111.679C347.654 110.663 346.774 109.894 345.758 109.963C345.717 109.965 345.676 109.97 345.637 109.975C345.606 109.976 345.576 109.977 345.546 109.979C345.205 110.002 344.873 110.099 344.574 110.263C339.232 112.138 333.809 119.507 333.809 119.507C344.503 118.53 347.945 114.147 347.783 111.758L347.727 111.801H347.727Z" fill="#222222"/>
<path d="M289.19 70.4296C290.112 69.7779 290.826 68.1842 291.509 67.2875C292.334 66.1981 293.179 65.1266 294.034 64.0545C310.726 43.441 335.158 31.4144 359.396 21.961C368.001 18.495 376.975 15.8626 386.098 14.1643C388.987 13.6528 391.91 13.2816 394.833 13.0841C409.49 12.0939 422.072 15.8715 429.434 27.3053C431.966 31.3271 433.395 36.6021 433.806 42.699C436.777 86.668 392.309 176.195 392.309 176.195C392.309 176.195 465.667 86.4356 491.657 55.8802C508.792 35.8067 519.576 25.8326 527.75 25.2803C531.914 24.9989 535.293 27.2438 538.505 31.7508C538.906 32.5033 539.145 33.3327 539.203 34.1837C539.208 34.2554 539.211 34.3284 539.214 34.3994C540.623 55.2586 492.313 164.28 484.19 187.184C479.857 199.408 478.431 206.895 478.765 211.838C478.77 211.993 478.777 212.156 478.787 212.313C479.031 215.911 480.828 219.228 483.709 221.396C484.369 221.987 484.772 222.813 484.832 223.696C484.834 223.728 484.836 223.762 484.838 223.793C485.097 227.64 480.884 233.625 476.825 233.899C474.046 234.087 471.189 231.7 469.842 224.478C469.716 223.687 469.623 222.883 469.569 222.081C469.558 221.923 469.55 221.753 469.539 221.599C468.007 198.912 489.517 146.517 502.419 111.688C512.885 83.5727 522.933 55.6983 522.261 45.7546C522.08 43.0714 521.236 41.7373 519.419 41.8601C518.203 42.0156 517.038 42.4635 516.03 43.1632C501.264 52.1117 409.389 160.637 398.269 175.793C387.149 190.949 387.661 187.368 378.564 208.725C370.025 228.624 366.126 242.557 358.423 243.077C357.921 243.084 357.415 243.048 356.918 242.966C352.133 242.217 348.964 239.639 348.682 235.465C348.458 232.147 350.1 227.844 354.265 222.722C363.701 211.235 401.094 131.538 415.825 75.7272C418.561 65.331 419.681 56.4447 419.175 48.9527C417.909 30.2285 406.743 20.8101 386.307 22.1908C379.141 22.7862 372.007 24.2537 365.172 26.5181C338.192 34.9876 316.361 50.4803 293.868 67.0326L289.19 70.4293L289.19 70.4296Z" fill="#222222"/>
<path d="M540.061 203.762C535.023 212.284 529.743 222.873 520.28 224.691C519.644 224.813 518.736 224.768 518.099 224.89C511.898 224.963 506.733 221.279 505.333 213.993C504.385 209.06 505.119 202.483 508.478 194.482C516.516 174.95 527.214 168.218 536.744 165.707L537.381 165.585C544.243 164.266 547.937 169.552 548.97 174.929C549.27 176.681 549.308 178.475 549.09 180.24L549.001 180.917C551.957 181.669 555.05 181.762 558.048 181.186C558.232 181.151 558.424 181.112 558.605 181.072C562.311 180.301 565.881 178.935 569.163 177.044L570.536 177.219C566.842 180.609 562.292 182.952 557.385 183.984C554.297 184.539 551.126 184.546 548.035 184.001C546.771 186.682 545.268 186.971 545.268 186.971C545.012 192.917 543.213 198.713 540.061 203.763L540.061 203.762L540.061 203.762ZM540.023 190.879C540.196 190.269 540.225 189.627 540.105 189.006C540.097 188.96 540.087 188.914 540.077 188.869C539.91 188.001 539.405 187.659 538.769 187.781C536.61 188.196 533.248 191.5 530.818 195.085C527.064 200.922 527.168 209.576 527.168 209.576C527.168 209.576 539.065 197.018 540.093 190.825L540.023 190.879L540.023 190.879Z" fill="#222222"/>
<path d="M575.185 159.399C577.277 159.05 579.408 158.864 581.532 158.836C588.158 158.682 591.856 162.848 592.226 164.775C592.348 165.411 592.177 165.663 591.733 165.749L591.523 165.792C591.311 165.833 591.058 165.662 590.846 165.702C589.13 166.032 588.792 170.094 583.431 188.473C580.051 199.795 579.108 206.431 579.637 209.187C579.885 210.479 580.431 211.033 581.299 210.866C582.283 210.486 583.154 209.856 583.825 209.04C587.545 205.207 602.977 179.118 610.15 166.628C609.834 166.432 609.556 166.181 609.328 165.887C608.231 165.057 607.456 163.869 607.144 162.53C607.14 162.512 607.137 162.493 607.133 162.476C606.628 159.848 608.097 157.239 610.605 156.309L611.029 156.228C613.693 156.156 616.275 160.336 616.275 160.336C616.397 160.972 616.311 161.668 616.393 162.092C617.134 165.947 620.32 167.553 626.117 167.558C628.623 167.67 631.144 167.491 633.608 167.017C633.665 167.006 633.723 166.995 633.78 166.984C633.791 166.982 633.807 166.979 633.819 166.977C635.601 166.634 637.358 166.142 639.056 165.51L637.124 167.001C635.473 168.058 633.63 168.794 631.704 169.164C631.434 169.216 631.16 169.259 630.889 169.297C624.763 170.399 618.445 169.858 612.596 167.719C605.414 181.31 581.79 221.444 576.021 226.99C574.603 228.419 572.783 229.39 570.803 229.77C570.796 229.772 570.789 229.773 570.781 229.774C565.848 230.723 561.256 226.489 560.064 220.282L559.897 219.415C558.632 210.544 570.054 165.879 570.054 165.879C570.71 161.597 571.754 160.058 575.184 159.399L575.185 159.399Z" fill="#222222"/>
<path d="M681.411 196.394C706.92 176.015 716.882 165.525 725.694 154.698L728 155.154C728.041 155.366 685.922 211.756 667.689 215.259C667.658 215.265 667.624 215.272 667.592 215.278C666.662 215.457 665.702 215.415 664.791 215.156C663.803 214.524 663.118 213.513 662.896 212.361C662.872 212.233 662.853 212.102 662.84 211.973C660.988 202.337 665.731 193.361 674.522 173.064C674.147 172.257 673.809 171.642 673.475 171.047L669.11 176.103C660.068 186.974 645.425 203.338 640.889 205.11L639.597 205.359C635.087 206.226 628.072 204.456 626.383 195.667L626.29 195.186C624.438 185.549 630.319 160.616 644.257 153.481C646.172 152.52 648.214 151.823 650.317 151.416C650.377 151.405 650.443 151.39 650.505 151.378C653.23 150.854 656.051 151.089 658.652 152.052L658.924 152.22C664.458 154.494 669.247 160.908 672.306 166.316C675.966 162.275 679.417 158.294 682.523 154.799C684.275 151.125 685.349 148.7 685.349 148.7C687 144.606 689.294 142.606 691.645 142.155C695.5 141.414 699.076 144.944 700.065 150.09L700.354 151.593C700.449 151.775 684.009 181.005 681.411 196.394L681.411 196.394ZM662.584 163.048C658.938 163.897 655.834 166.281 654.067 169.581C648.989 177.892 646.701 186.785 647.36 190.217C647.527 191.084 647.82 191.467 648.285 191.598L648.497 191.557C650.425 191.187 661.06 179.349 671.257 167.617C669.833 165.304 667.603 163.596 664.999 162.824C664.324 162.789 663.642 162.834 662.977 162.962C662.846 162.987 662.712 163.016 662.584 163.047L662.584 163.048V163.048ZM677.231 166.469L674.365 169.958C674.699 170.553 674.821 171.189 675.114 171.573C675.922 169.914 676.638 168.202 677.253 166.468L677.231 166.469Z" fill="#222222"/>
<path d="M1.14829e-05 252.591C0.429565 251.418 0.887237 250.201 1.4316 248.928C1.97586 247.655 2.36222 246.424 2.86318 245.265L5.59764 237.852L6.94312 234.246L8.14587 230.983L11.0072 230.983C11.422 232.099 11.8086 233.187 12.2093 234.26C12.6099 235.334 13.0393 236.536 13.5254 237.867L16.2583 245.309L17.603 248.987L18.9191 252.594L16.5716 252.593C16.0996 251.305 15.6275 249.974 15.1408 248.6C14.6542 247.226 14.1967 245.939 13.71 244.722L9.5184 232.986H9.27546L4.9806 244.606L3.54901 248.57C3.04795 250.002 2.56099 251.289 2.11733 252.592L-0.000183105 252.592L1.14829e-05 252.591ZM3.67861 246.868L3.83613 245.136L15.1419 245.138L15.2564 246.869L3.6787 246.868H3.67861Z" fill="#222222"/>
<path d="M24.9869 252.594L24.9891 230.985L38.1696 230.986L38.1694 232.889L25.9334 232.888L27.0786 231.314L27.0763 252.323L26.0602 250.734L38.2248 250.736L38.2246 252.596L24.9869 252.594V252.594ZM26.6339 242.577L26.6341 240.773L37.5102 240.775L37.51 242.578L26.6339 242.577Z" fill="#222222"/>
<path d="M51.3476 252.926C50.4373 252.923 49.5243 252.841 48.6286 252.681C47.7822 252.53 46.9421 252.319 46.1249 252.053C45.4899 251.843 44.87 251.578 44.2795 251.265L44.5231 249.218C45.1933 249.583 45.8975 249.908 46.6125 250.179C47.3334 250.451 48.0858 250.665 48.8446 250.807C49.6111 250.959 50.3964 251.037 51.1802 251.037C51.2023 251.037 51.2256 251.037 51.2478 251.037C51.2829 251.036 51.3213 251.038 51.357 251.038C52.1997 251.038 53.0398 250.901 53.8392 250.636C54.5683 250.386 55.2099 249.928 55.6849 249.32C56.1441 248.677 56.3908 247.906 56.3909 247.117C56.3909 247.054 56.3894 246.992 56.3861 246.93C56.3871 246.893 56.3883 246.854 56.3883 246.816C56.3883 246.121 56.1439 245.446 55.6994 244.912C55.1504 244.301 54.476 243.812 53.7247 243.48C52.8518 243.094 51.8073 242.707 50.5909 242.306C49.3647 241.935 48.17 241.453 47.0266 240.875C46.1439 240.446 45.3731 239.812 44.7805 239.03C44.2759 238.267 44.005 237.371 44.0051 236.457C44.0051 236.399 44.0067 236.339 44.0084 236.281C44.0078 236.237 44.0067 236.192 44.0067 236.148C44.0069 234.06 45.2286 232.164 47.1293 231.301C48.2458 230.8 49.459 230.539 50.6841 230.539C50.768 230.539 50.8534 230.541 50.9362 230.543C50.9525 230.543 50.9714 230.543 50.9871 230.543C51.6009 230.543 52.2197 230.593 52.825 230.687C53.4177 230.768 54.009 230.895 54.5839 231.058C55.1015 231.197 55.61 231.377 56.1011 231.589C56.5019 231.758 56.8918 231.961 57.2607 232.189L57.017 234.279C56.4184 233.859 55.7676 233.51 55.0851 233.248C54.4317 232.986 53.747 232.782 53.0536 232.647C52.4218 232.521 51.7792 232.454 51.1361 232.447C51.1113 232.446 51.0836 232.446 51.0593 232.446C50.2663 232.446 49.4788 232.582 48.7318 232.847C48.0313 233.08 47.4066 233.501 46.9284 234.063C46.481 234.64 46.2381 235.35 46.238 236.08C46.238 236.127 46.2391 236.177 46.2412 236.224C46.2396 236.256 46.2391 236.29 46.2391 236.322C46.239 236.942 46.4407 237.546 46.8128 238.042C47.2996 238.611 47.9128 239.064 48.6014 239.359C49.6171 239.82 50.6696 240.225 51.7351 240.56C53.1582 240.971 54.5395 241.538 55.8436 242.236C56.7083 242.672 57.4411 243.335 57.9609 244.153C58.3756 244.909 58.593 245.76 58.5929 246.622C58.5929 246.672 58.5918 246.724 58.5902 246.773C58.5902 246.796 58.5908 246.821 58.5908 246.845C58.5906 247.894 58.3287 248.927 57.831 249.849C57.2883 250.804 56.4629 251.57 55.4698 252.039C54.2456 252.624 52.9037 252.928 51.5455 252.928C51.48 252.928 51.412 252.927 51.3476 252.926V252.926V252.926Z" fill="#222222"/>
<path d="M70.4242 252.599L70.4265 231.276L71.2993 232.922L62.7126 232.921L62.7129 230.989L80.1296 230.99L80.1294 232.894L71.5428 232.893L72.43 231.247L72.4277 252.571L70.4242 252.599Z" fill="#222222"/>
<path d="M86.4529 252.601L86.4552 230.991L88.5875 230.991L88.5851 252.601L86.4529 252.601ZM87.7419 242.583L87.7421 240.708L102.053 240.71L102.053 242.585L87.7419 242.583ZM101.05 252.602L101.052 230.993L103.199 230.993L103.197 252.602L101.05 252.602Z" fill="#222222"/>
<path d="M111.44 252.603L111.442 230.994L124.608 230.995L124.608 232.899L112.386 232.897L113.532 231.324L113.529 252.332L112.47 250.786L124.62 250.788L124.62 252.648L111.44 252.603V252.603ZM113.072 242.586L113.072 240.783L123.977 240.784L123.977 242.588L113.072 242.586Z" fill="#222222"/>
<path d="M137.314 252.606L137.316 231.283L138.189 232.929L129.674 232.928L129.674 230.996L147.09 230.998L147.09 232.901L138.504 232.9L139.391 231.254L139.389 252.578L137.314 252.606Z" fill="#222222"/>
<path d="M153.428 252.608L153.431 230.998L155.577 230.999L155.575 252.608L153.428 252.608Z" fill="#222222"/>
<path d="M173.463 252.939C173.406 252.939 173.341 252.941 173.281 252.941C171.774 252.94 170.279 252.647 168.885 252.08C167.577 251.555 166.393 250.754 165.421 249.733C164.459 248.712 163.711 247.502 163.232 246.183C162.732 244.798 162.474 243.334 162.474 241.86C162.474 241.827 162.474 241.793 162.474 241.761C162.475 241.707 162.473 241.648 162.473 241.592C162.473 239.658 162.94 237.751 163.834 236.037C164.679 234.397 165.978 233.03 167.569 232.101C169.179 231.164 171.01 230.669 172.873 230.669C172.933 230.669 172.993 230.67 173.051 230.67C173.076 230.671 173.102 230.671 173.127 230.671C173.805 230.671 174.484 230.718 175.156 230.813C175.803 230.907 176.445 231.053 177.072 231.243C177.673 231.429 178.217 231.615 178.732 231.816C179.177 231.99 179.614 232.193 180.035 232.417L179.82 234.52C179.089 234.09 178.32 233.716 177.531 233.405C176.816 233.137 176.075 232.931 175.326 232.789C174.625 232.661 173.908 232.591 173.194 232.588C173.147 232.589 173.095 232.587 173.047 232.587C171.553 232.587 170.083 232.978 168.786 233.719C167.504 234.482 166.46 235.594 165.781 236.923C165.064 238.354 164.689 239.936 164.689 241.536C164.689 241.629 164.69 241.727 164.692 241.819C164.692 241.844 164.692 241.875 164.692 241.901C164.692 243.092 164.883 244.278 165.251 245.41C165.611 246.496 166.186 247.499 166.938 248.359C167.734 249.224 168.713 249.904 169.801 250.348C170.973 250.821 172.23 251.066 173.496 251.066C173.556 251.066 173.62 251.065 173.679 251.065C173.695 251.064 173.712 251.064 173.727 251.064C174.232 251.064 174.741 251.029 175.239 250.964C175.765 250.907 176.289 250.805 176.799 250.664C177.32 250.525 177.829 250.338 178.316 250.106C178.817 249.875 179.298 249.595 179.747 249.276L179.961 251.35C179.507 251.635 179.027 251.88 178.53 252.081C178.015 252.282 177.48 252.451 176.941 252.581C176.381 252.71 175.807 252.813 175.238 252.883C174.565 252.94 173.979 252.939 173.464 252.939H173.463Z" fill="#222222"/>
<path d="M220.69 252.945C220.635 252.943 220.572 252.945 220.515 252.945C219.006 252.945 217.509 252.651 216.112 252.084C214.803 251.56 213.619 250.759 212.647 249.738C211.689 248.715 210.942 247.504 210.458 246.188C209.959 244.803 209.7 243.339 209.7 241.865C209.7 241.832 209.7 241.798 209.7 241.766C209.701 241.753 209.701 241.742 209.701 241.73C209.701 239.746 210.195 237.79 211.133 236.042C211.982 234.406 213.278 233.039 214.868 232.106C216.479 231.169 218.311 230.674 220.176 230.674C220.238 230.674 220.304 230.675 220.364 230.675C220.386 230.676 220.41 230.676 220.433 230.676C221.107 230.676 221.785 230.725 222.452 230.819C223.101 230.912 223.743 231.058 224.37 231.248C224.971 231.434 225.516 231.62 226.03 231.821C226.475 231.995 226.913 232.198 227.333 232.422L227.118 234.525C226.387 234.095 225.619 233.721 224.829 233.41C224.114 233.142 223.373 232.936 222.624 232.794C221.923 232.666 221.207 232.596 220.492 232.593C220.445 232.593 220.394 232.592 220.346 232.592C218.852 232.592 217.381 232.983 216.084 233.724C214.802 234.487 213.758 235.599 213.079 236.928C212.362 238.359 211.986 239.941 211.986 241.541C211.986 241.634 211.987 241.732 211.99 241.824C211.991 241.849 211.991 241.88 211.991 241.906C211.99 243.097 212.181 244.283 212.549 245.415C212.91 246.501 213.484 247.504 214.236 248.364C215.032 249.229 216.011 249.909 217.099 250.353C218.271 250.826 219.528 251.071 220.793 251.071C220.853 251.071 220.917 251.07 220.976 251.07C220.993 251.069 221.01 251.069 221.025 251.069C221.529 251.069 222.038 251.034 222.537 250.969C223.063 250.912 223.588 250.81 224.097 250.669C224.618 250.53 225.127 250.343 225.614 250.111C226.117 249.883 226.598 249.603 227.046 249.28L227.26 251.355C226.808 251.643 226.325 251.889 225.828 252.086C225.314 252.29 224.778 252.459 224.239 252.586C223.68 252.716 223.107 252.821 222.537 252.887C221.849 252.944 221.262 252.944 220.69 252.944L220.69 252.945Z" fill="#222222"/>
<path d="M234.114 252.616L234.116 231.007L247.297 231.008L247.296 232.912L235.003 232.911L236.148 231.337L236.146 252.345L235.087 250.799L247.251 250.801L247.251 252.661L234.114 252.617L234.114 252.616ZM235.76 242.599L235.76 240.796L246.651 240.797L246.651 242.601L235.76 242.599Z" fill="#222222"/>
<path d="M254.35 252.619L254.352 231.009L256.327 231.009L260.276 236.563C261.535 238.356 262.789 240.117 264.039 241.844L269.033 248.871H269.219L269.221 231.011L271.267 231.011L271.265 252.62L269.347 252.62C268.202 251.032 267.015 249.343 265.756 247.583L261.592 241.743L256.584 234.673H256.47L256.468 252.62L254.35 252.619H254.35Z" fill="#222222"/>
<path d="M285.161 252.622L285.163 231.299L286.022 232.945L277.507 232.944L277.507 231.012L294.923 231.013L294.923 232.917L286.408 232.916L287.281 231.27L287.279 252.594L285.161 252.622Z" fill="#222222"/>
<path d="M301.161 252.624L301.163 231.014L308.218 231.015C308.323 231.012 308.433 231.01 308.539 231.01C309.79 231.01 311.039 231.212 312.226 231.602C313.211 231.923 314.056 232.576 314.615 233.448C315.135 234.383 315.408 235.436 315.408 236.506C315.408 236.593 315.406 236.682 315.403 236.769C315.403 236.791 315.403 236.814 315.403 236.836C315.403 237.913 315.172 238.979 314.729 239.96C314.241 240.965 313.436 241.785 312.44 242.292C311.187 242.889 309.812 243.201 308.423 243.201C308.303 243.201 308.181 243.198 308.061 243.194L308.677 242.221L312.197 246.515L313.943 248.618L315.76 250.794L317.319 252.683L314.785 252.683L312.567 249.992L310.449 247.444L306.557 242.535L307.874 243.523L302.937 243.523L302.937 241.734L307.23 241.734C307.325 241.736 307.425 241.738 307.52 241.738C308.58 241.738 309.639 241.577 310.651 241.262C311.472 240.999 312.176 240.457 312.641 239.731C313.066 238.948 313.29 238.07 313.29 237.179C313.29 237.1 313.288 237.019 313.284 236.94C313.288 236.86 313.291 236.779 313.291 236.699C313.291 235.979 313.127 235.269 312.812 234.622C312.534 234.097 312.099 233.671 311.568 233.405C311.049 233.161 310.491 232.999 309.922 232.933C309.335 232.933 308.763 232.833 308.204 232.833L301.979 232.832L303.339 231.301L303.336 252.624L301.161 252.624L301.161 252.624Z" fill="#222222"/>
<path d="M323.572 252.626L323.574 231.017L336.74 231.018L336.74 232.921L324.504 232.92L325.663 231.346L325.661 252.355L324.602 250.809L336.753 250.81L336.752 252.671L323.572 252.626V252.626ZM325.204 242.609L325.205 240.805L336.095 240.807L336.095 242.61L325.162 242.609H325.204Z" fill="#222222"/>
<path d="M209.992 28.6278C209.992 45.2661 201.941 60.5586 185.838 74.5055C170.809 87.9629 155.672 94.6917 140.428 94.6917C124.755 94.6917 116.918 87.8406 116.918 74.1385C116.918 64.3513 118.851 59.4577 122.715 59.4577C124.218 59.4577 124.97 60.5586 124.97 62.7608C124.97 63.4949 124.862 64.596 124.648 66.064C124.433 67.5322 124.325 68.6332 124.325 69.3673C124.325 78.9098 129.8 83.6811 140.75 83.6811C152.13 83.6811 165.012 77.4418 179.397 64.963C193.782 52.4842 200.974 40.1278 200.974 27.8939C200.974 15.9044 192.064 9.90972 174.244 9.90972C170.594 9.90972 167.051 10.1544 163.616 10.6438C145.152 12.846 124.111 21.7157 100.494 37.2529C76.8763 52.7901 57.231 70.9577 41.5577 91.7556C24.1667 115.245 15.4713 137.756 15.4713 159.288C15.4713 172.745 19.4433 183.022 27.3874 190.118C34.4725 196.479 44.1341 199.66 56.3722 199.66C95.4482 199.66 133.343 182.288 170.057 147.543C170.916 146.809 171.775 146.442 172.634 146.442C175.21 146.442 176.498 148.032 176.498 151.213C176.498 152.437 176.069 153.538 175.21 154.517C159.537 170.91 140.965 184.857 119.495 196.357C95.8775 209.08 74.5147 215.442 55.4061 215.442C39.7328 215.442 27.0653 211.772 17.4037 204.431C6.02457 195.868 0.3349 183.144 0.3349 166.261C0.3349 146.197 7.52747 124.298 21.9125 100.564C38.874 72.426 60.8811 49.059 87.9336 30.4631C116.918 10.1545 145.474 0.000305176 173.6 0.000305176C197.861 0.000305176 209.992 9.54282 209.992 28.628L209.992 28.6278Z" fill="#222222"/>
</g>
<defs>
<clipPath id="clip0_1363_1121">
<rect width="728" height="252.945" fill="white"/>
</clipPath>
</defs>
</svg>
