<svg width="56" height="53" viewBox="0 0 56 53" fill="none" xmlns="http://www.w3.org/2000/svg">
<path d="M16.5609 25.9395C16.7063 25.8374 16.8189 25.5876 16.9266 25.447C17.0567 25.2763 17.19 25.1083 17.3249 24.9403C19.9577 21.7094 23.811 19.8244 27.6339 18.3427C28.9912 17.7994 30.4066 17.3868 31.8455 17.1206C32.3012 17.0405 32.7621 16.9823 33.2232 16.9513C35.5349 16.7961 37.5194 17.3882 38.6804 19.1803C39.0798 19.8107 39.3052 20.6375 39.3701 21.5931C39.8387 28.4847 32.8251 42.5169 32.8251 42.5169C32.8251 42.5169 44.3952 28.4483 48.4945 23.6591C51.197 20.5128 52.8979 18.9495 54.1872 18.8629C54.8439 18.8188 55.3768 19.1707 55.8835 19.8771C55.9467 19.995 55.9844 20.125 55.9935 20.2584C55.9943 20.2697 55.9948 20.2811 55.9952 20.2922C56.2175 23.5617 48.598 40.6494 47.3168 44.2393C46.6334 46.1552 46.4084 47.3287 46.4611 48.1035C46.462 48.1278 46.463 48.1533 46.4647 48.1779C46.503 48.7418 46.7866 49.2618 47.241 49.6015C47.345 49.6942 47.4086 49.8236 47.418 49.9621C47.4184 49.9672 47.4187 49.9724 47.4189 49.9773C47.4599 50.5803 46.7953 51.5183 46.1552 51.5613C45.7169 51.5907 45.2663 51.2167 45.0537 50.0847C45.0339 49.9606 45.0192 49.8347 45.0107 49.7089C45.009 49.6842 45.0077 49.6575 45.006 49.6334C44.7643 46.0776 48.157 37.8653 50.1918 32.4062C51.8426 27.9995 53.4274 23.6306 53.3214 22.072C53.2929 21.6515 53.1598 21.4424 52.8731 21.4616C52.6813 21.486 52.4976 21.5562 52.3387 21.6659C50.0097 23.0684 35.519 40.0784 33.7651 42.4539C32.0113 44.8294 32.092 44.2682 30.6572 47.6155C29.3105 50.7344 28.6955 52.9183 27.4805 52.9999C27.4013 53.001 27.3215 52.9952 27.2431 52.9824C26.4885 52.865 25.9887 52.461 25.9442 51.8068C25.9088 51.2867 26.1677 50.6122 26.8247 49.8094C28.3129 48.009 34.2107 35.5175 36.534 26.7698C36.9656 25.1404 37.1422 23.7475 37.0624 22.5733C36.8628 19.6385 35.1016 18.1623 31.8784 18.3787C30.7482 18.472 29.623 18.702 28.545 19.0569C24.2896 20.3844 20.8464 22.8127 17.2988 25.4071L16.5609 25.9395L16.5609 25.9395Z" fill="#222222"/>
<path d="M33.0676 4.48699C33.0676 7.09485 31.7977 9.49175 29.258 11.6777C26.8875 13.787 24.5002 14.8417 22.0959 14.8417C19.6238 14.8417 18.3878 13.7679 18.3878 11.6202C18.3878 10.0862 18.6926 9.31919 19.3021 9.31919C19.5392 9.31919 19.6577 9.49175 19.6577 9.83691C19.6577 9.95197 19.6408 10.1246 19.6069 10.3547C19.573 10.5848 19.5561 10.7573 19.5561 10.8724C19.5561 12.3681 20.4196 13.1159 22.1466 13.1159C23.9414 13.1159 25.9732 12.138 28.2421 10.1821C30.5109 8.22619 31.6453 6.28948 31.6453 4.37196C31.6453 2.49277 30.24 1.55318 27.4294 1.55318C26.8537 1.55318 26.2949 1.59153 25.7531 1.66823C22.8409 2.01339 19.5223 3.40361 15.7973 5.83887C12.0723 8.27413 8.97379 11.1217 6.50175 14.3815C3.75881 18.0631 2.38736 21.5914 2.38736 24.9663C2.38736 27.0756 3.01382 28.6863 4.26678 29.7985C5.38427 30.7956 6.90812 31.2941 8.83833 31.2941C15.0015 31.2941 20.9784 28.5712 26.769 23.1254C26.9045 23.0104 27.0399 22.9529 27.1754 22.9529C27.5817 22.9529 27.7849 23.2022 27.7849 23.7007C27.7849 23.8925 27.7172 24.0651 27.5817 24.2185C25.1097 26.788 22.1805 28.9739 18.7942 30.7764C15.0692 32.7707 11.6998 33.7678 8.68597 33.7678C6.21394 33.7678 4.21598 33.1925 2.69213 32.042C0.897388 30.6997 0 28.7055 0 26.0593C0 22.9145 1.13443 19.4822 3.40327 15.7621C6.07848 11.3518 9.54949 7.68932 13.8163 4.77466C18.3878 1.59154 22.8917 0 27.3278 0C31.1543 0 33.0676 1.49567 33.0676 4.48702L33.0676 4.48699Z" fill="#222222"/>
</svg>
