<svg width="173" height="165" viewBox="0 0 173 165" fill="none" xmlns="http://www.w3.org/2000/svg">
<path d="M51.1613 80.7551C51.6106 80.4371 51.9583 79.6594 52.2912 79.2218C52.6931 78.6903 53.105 78.1674 53.5216 77.6443C61.6549 67.5858 73.5591 61.7173 85.3691 57.1045C89.5622 55.4132 93.9348 54.1287 98.3799 53.3C99.7876 53.0505 101.211 52.8694 102.636 52.773C109.777 52.2898 115.908 54.1331 119.495 59.7123C120.729 61.6747 121.425 64.2487 121.626 67.2237C123.073 88.6787 101.406 132.364 101.406 132.364C101.406 132.364 137.149 88.5653 149.813 73.6556C158.162 63.8606 163.417 58.9937 167.4 58.7241C169.429 58.5869 171.075 59.6822 172.64 61.8815C172.835 62.2487 172.952 62.6534 172.98 63.0687C172.982 63.1036 172.984 63.1393 172.985 63.1739C173.672 73.3523 150.133 126.55 146.175 137.726C144.064 143.691 143.369 147.344 143.532 149.756C143.534 149.832 143.537 149.911 143.543 149.988C143.661 151.743 144.537 153.362 145.941 154.42C146.262 154.708 146.459 155.111 146.488 155.542C146.489 155.558 146.49 155.574 146.491 155.59C146.617 157.467 144.564 160.387 142.587 160.521C141.232 160.613 139.841 159.448 139.184 155.924C139.123 155.538 139.077 155.146 139.051 154.754C139.046 154.677 139.042 154.594 139.036 154.519C138.29 143.449 148.771 117.882 155.057 100.887C160.157 87.1683 165.053 73.5668 164.725 68.7147C164.637 67.4054 164.226 66.7545 163.34 66.8144C162.748 66.8903 162.18 67.1088 161.689 67.4503C154.494 71.8167 109.728 124.772 104.31 132.168C98.8921 139.563 99.1414 137.816 94.7088 148.237C90.5484 157.947 88.6486 164.746 84.8952 165C84.6505 165.003 84.4039 164.985 84.1618 164.945C81.8304 164.58 80.2864 163.322 80.149 161.285C80.0398 159.666 80.8396 157.566 82.8693 155.067C87.4666 149.462 105.687 110.573 112.864 83.34C114.197 78.2672 114.743 73.931 114.496 70.2753C113.88 61.1387 108.439 56.5429 98.4814 57.2166C94.9901 57.5072 91.5138 58.2232 88.1836 59.3282C75.0374 63.4609 64.4005 71.0207 53.4409 79.0975L51.1612 80.7549L51.1613 80.7551Z" fill="#222222"/>
<path d="M102.155 13.9689C102.155 22.0877 98.2323 29.5498 90.3862 36.3552C83.0633 42.9219 75.688 46.2052 68.2605 46.2052C60.6237 46.2052 56.8052 42.8622 56.8052 36.1762C56.8052 31.4004 57.7468 29.0126 59.6298 29.0126C60.3621 29.0126 60.7283 29.5498 60.7283 30.6244C60.7283 30.9826 60.6759 31.5198 60.5713 32.2362C60.4667 32.9526 60.4143 33.4898 60.4143 33.848C60.4143 38.5044 63.0821 40.8326 68.4173 40.8326C73.9619 40.8326 80.2387 37.7881 87.2478 31.6989C94.2569 25.6098 97.7615 19.5805 97.7615 13.6108C97.7615 7.7605 93.42 4.83536 84.7371 4.83536C82.9587 4.83536 81.2326 4.95476 79.5587 5.19356C70.562 6.26811 60.3098 10.5962 48.8023 18.1776C37.2948 25.7591 27.7226 34.6241 20.0858 44.7726C11.612 56.2343 7.37523 67.2186 7.37523 77.7253C7.37523 84.2919 9.31055 89.3064 13.1813 92.7689C16.6335 95.8731 21.3412 97.4252 27.3041 97.4252C46.3439 97.4252 64.8082 88.9482 82.6971 71.9943C83.1156 71.6361 83.5341 71.4571 83.9525 71.4571C85.2079 71.4571 85.8355 72.2331 85.8355 73.7853C85.8355 74.3822 85.6263 74.9195 85.2079 75.3971C77.5711 83.3965 68.522 90.2019 58.0606 95.8134C46.5531 102.022 36.1441 105.126 26.8334 105.126C19.1966 105.126 13.0244 103.335 8.31677 99.7534C2.77229 95.5746 0 89.3662 0 81.128C0 71.3378 3.50458 60.652 10.5137 49.0708C18.7782 35.3406 29.5011 23.9385 42.6824 14.8645C56.8053 4.95481 70.719 0 84.4234 0C96.2447 0 102.155 4.65633 102.155 13.969L102.155 13.9689Z" fill="#222222"/>
</svg>
