<svg width="36" height="36" viewBox="0 0 36 36" fill="none" xmlns="http://www.w3.org/2000/svg">
<path d="M11.5202 2.15997C6.35776 2.15997 2.16016 6.35757 2.16016 11.52V24.48C2.16016 29.6424 6.35776 33.84 11.5202 33.84H24.4802C29.6426 33.84 33.8402 29.6424 33.8402 24.48V11.52C33.8402 6.35757 29.6426 2.15997 24.4802 2.15997H11.5202ZM26.6402 7.91997C27.4322 7.91997 28.0802 8.56797 28.0802 9.35997C28.0802 10.152 27.4322 10.8 26.6402 10.8C25.8482 10.8 25.2002 10.152 25.2002 9.35997C25.2002 8.56797 25.8482 7.91997 26.6402 7.91997ZM18.0002 10.08C22.3706 10.08 25.9202 13.6296 25.9202 18C25.9202 22.3704 22.3706 25.92 18.0002 25.92C13.6298 25.92 10.0802 22.3704 10.0802 18C10.0802 13.6296 13.6298 10.08 18.0002 10.08ZM18.0002 11.52C14.429 11.52 11.5202 14.4288 11.5202 18C11.5202 21.5712 14.429 24.48 18.0002 24.48C21.5714 24.48 24.4802 21.5712 24.4802 18C24.4802 14.4288 21.5714 11.52 18.0002 11.52Z" fill="#222222"/>
</svg>
