<svg width="36" height="36" viewBox="0 0 36 36" fill="none" xmlns="http://www.w3.org/2000/svg">
<path d="M33.2174 4.71745C32.6774 4.25953 31.8293 4.19401 30.9523 4.54609H30.9509C30.0285 4.91617 4.84295 15.719 3.81767 16.1604C3.63119 16.2252 2.00255 16.8329 2.17031 18.1865C2.32007 19.4069 3.62903 19.9123 3.78887 19.9706L10.1918 22.163C10.6166 23.5771 12.1826 28.7943 12.5289 29.9088C12.7449 30.6036 13.097 31.5166 13.7141 31.7045C14.2555 31.9133 14.7941 31.7225 15.1425 31.4489L19.0572 27.8179L25.3766 32.7463L25.5271 32.8363C25.9562 33.0264 26.3673 33.1214 26.7597 33.1214C27.0629 33.1214 27.3538 33.0646 27.6317 32.9508C28.5785 32.562 28.9572 31.6599 28.9968 31.5576L33.7171 7.02217C34.0051 5.71177 33.6048 5.04505 33.2174 4.71745ZM15.8388 23.04L13.6788 28.8L11.5188 21.6L28.0788 9.36001L15.8388 23.04Z" fill="#222222"/>
</svg>
